M48
; DRILL file {KiCad 5.1.5+dfsg1-2build2} date sam. 03 avril 2021 14:18:31
; FORMAT={-:-/ absolute / metric / decimal}
; #@! TF.CreationDate,2021-04-03T14:18:31+02:00
; #@! TF.GenerationSoftware,Kicad,Pcbnew,5.1.5+dfsg1-2build2
FMAT,2
METRIC
T1C1.000
T2C2.200
%
G90
G05
T1
X15.9Y48.0
X18.44Y48.0
X20.98Y48.0
X23.52Y48.0
X26.06Y48.0
X28.6Y48.0
X31.14Y48.0
X33.68Y48.0
X36.22Y48.0
X38.76Y48.0
X41.3Y48.0
X43.84Y48.0
X46.38Y48.0
X48.92Y48.0
X51.46Y48.0
X54.0Y48.0
X2.0Y44.0
X2.0Y41.46
X2.0Y38.92
X2.0Y36.38
X2.0Y33.84
X2.0Y31.3
X2.0Y28.76
X2.0Y26.22
X2.0Y23.68
X2.0Y21.14
X2.0Y18.6
X2.0Y16.06
X2.0Y13.52
X2.0Y10.98
X2.0Y8.44
X2.0Y5.9
X16.0Y2.0
X18.54Y2.0
X21.08Y2.0
X23.62Y2.0
X26.16Y2.0
X28.7Y2.0
X31.24Y2.0
X33.78Y2.0
X36.32Y2.0
X38.86Y2.0
X41.4Y2.0
X43.94Y2.0
X46.48Y2.0
X49.02Y2.0
X51.56Y2.0
X54.1Y2.0
X68.0Y44.0
X68.0Y41.46
X68.0Y38.92
X68.0Y36.38
X68.0Y33.84
X68.0Y31.3
X68.0Y28.76
X68.0Y26.22
X68.0Y23.68
X68.0Y21.14
X68.0Y18.6
X68.0Y16.06
X68.0Y13.52
X68.0Y10.98
X68.0Y8.44
X68.0Y5.9
T2
X60.0Y5.0
X60.0Y45.0
X10.0Y5.0
X10.0Y45.0
T0
M30
